<svg xmlns="http://www.w3.org/2000/svg" width="32" height="32" viewBox="0 0 24 24"><path fill="currentColor" d="M5.616 20q-.691 0-1.153-.462T4 18.384V5.616q0-.691.463-1.153T5.616 4h6.5q.212 0 .356.144t.144.357t-.144.356t-.356.143h-6.5q-.27 0-.443.173T5 5.616v12.769q0 .269.173.442t.443.173h12.769q.269 0 .442-.173t.173-.443v-6.5q0-.212.144-.356t.357-.144t.356.144t.143.356v6.5q0 .691-.462 1.153T18.384 20zm1.153-3.616h10.462L14 12.077l-3 3.789l-2-2.404zM17 7h-1.5q-.213 0-.356-.144T15 6.499t.144-.356T15.5 6H17V4.5q0-.213.144-.356T17.501 4t.356.144T18 4.5V6h1.5q.213 0 .356.144t.144.357t-.144.356T19.5 7H18v1.5q0 .213-.144.356T17.499 9t-.356-.144T17 8.5z"/></svg>
